# xmcd
#
# Track frame offsets: 
#        150
#        22173
#        39070
#        56523
#        72525
#        88848
#        102838
#        114948
#        132475
#        149915
#        164120
#        180360
#
# Disc length: 2580 seconds
#
# Revision: 3
# Processed by: cddbd v1.5.2PL0 Copyright (c) Steve Scherf et al.
# Submitted via: ExactAudioCopy v1.0b3
#
DISCID=af0a120c
DTITLE=Nashville Superpickers - Pickin' on the Eagles
DYEAR=1994
DGENRE=Bluegrass
TTITLE0=Hotel California
TTITLE1=Witchy Woman
TTITLE2=New Kid in Town
TTITLE3=Peaceful, Easy Feelin'
TTITLE4=Lyin' Eyes
TTITLE5=Desperado
TTITLE6=Tequila Sunrise
TTITLE7=Take It to the Limit
TTITLE8=Heartache Tonight
TTITLE9=Take It Easy
TTITLE10=I Can't Tell You Why
TTITLE11=Seven Bridges Road
EXTD=YEAR: 1994
EXTT0=
EXTT1=
EXTT2=
EXTT3=
EXTT4=
EXTT5=
EXTT6=
EXTT7=
EXTT8=
EXTT9=
EXTT10=
EXTT11=
PLAYORDER=
